<?xml version="1.0" encoding="UTF-8"?>
<svg xmlns="http://www.w3.org/2000/svg" style="display: none;">
    <symbol id="icon-phone" viewBox="0 0 24 24">
        <path d="M22 16.92v3a2 2 0 0 1-2.18 2 19.79 19.79 0 0 1-8.63-3.07 19.5 19.5 0 0 1-6-6 19.79 19.79 0 0 1-3.07-8.67A2 2 0 0 1 4.11 2h3a2 2 0 0 1 2 1.72 12.84 12.84 0 0 0 .7 2.81 2 2 0 0 1-.45 2.11L8.09 9.91a16 16 0 0 0 6 6l1.27-1.27a2 2 0 0 1 2.11-.45 12.84 12.84 0 0 0 2.81.7A2 2 0 0 1 22 16.92z"/>
    </symbol>
    
    <symbol id="icon-whatsapp" viewBox="0 0 24 24">
        <path fill-rule="evenodd" clip-rule="evenodd" d="M19.44 4.55999C17.368 2.47499 14.578 1.32999 11.618 1.32999C5.538 1.32999 0.598004 6.26999 0.598004 12.35C0.598004 14.28 1.092 16.16 2.022 17.83L0.5 23.33L6.145 21.84C7.748 22.69 9.558 23.14 11.408 23.14H11.418C17.498 23.14 22.5 18.2 22.5 12.12C22.5 9.15999 21.512 6.64499 19.44 4.55999ZM11.418 21.29C9.77 21.29 8.153 20.86 6.748 20.04L6.398 19.83L3.098 20.71L3.998 17.49L3.768 17.13C2.868 15.67 2.398 13.97 2.398 12.23C2.398 7.17999 6.478 3.09999 11.528 3.09999C14.028 3.09999 16.368 4.06499 18.138 5.83499C19.908 7.60499 20.813 9.94499 20.803 12.44C20.803 17.5 16.478 21.29 11.418 21.29ZM16.378 14.64C16.108 14.51 14.758 13.84 14.508 13.75C14.258 13.67 14.078 13.63 13.898 13.89C13.718 14.16 13.188 14.78 13.028 14.96C12.878 15.13 12.718 15.15 12.448 15.02C12.178 14.88 11.288 14.57 10.238 13.63C9.418 12.89 8.858 11.98 8.698 11.71C8.548 11.44 8.678 11.3 8.818 11.17C8.938 11.05 9.088 10.86 9.228 10.7C9.368 10.54 9.408 10.42 9.488 10.24C9.568 10.06 9.528 9.89999 9.468 9.76999C9.408 9.63999 8.848 8.28999 8.628 7.74999C8.408 7.22999 8.188 7.29999 8.028 7.28999H7.488C7.308 7.28999 7.028 7.34999 6.778 7.61999C6.528 7.88999 5.818 8.55999 5.818 9.90999C5.818 11.26 6.828 12.57 6.968 12.75C7.108 12.93 8.848 15.61 11.508 16.81C12.278 17.14 12.878 17.33 13.348 17.47C14.128 17.71 14.838 17.67 15.398 17.61C16.028 17.54 17.108 16.94 17.328 16.31C17.548 15.68 17.548 15.14 17.478 15.02C17.408 14.89 17.228 14.82 16.958 14.69L16.378 14.64Z"/>
    </symbol>
</svg>